<mxfile host="app.diagrams.net" agent="Mozilla/5.0 (Macintosh; Intel Mac OS X 10_15_7) AppleWebKit/605.1.15 (KHTML, like Gecko) Version/17.3.1 Safari/605.1.15" version="24.8.6">
  <diagram name="Page-1" id="SdKxj-oRd3LNvN1_tFQX">
    <mxGraphModel dx="1809" dy="916" grid="1" gridSize="10" guides="1" tooltips="1" connect="1" arrows="1" fold="1" page="1" pageScale="1" pageWidth="850" pageHeight="1100" math="0" shadow="0">
      <root>
        <mxCell id="0" />
        <mxCell id="1" parent="0" />
        <mxCell id="-ThjXkDwFaDYfXRfRSBC-2" value="Object" style="html=1;whiteSpace=wrap;" parent="1" vertex="1">
          <mxGeometry x="550" y="70" width="100" height="40" as="geometry" />
        </mxCell>
        <mxCell id="-ThjXkDwFaDYfXRfRSBC-4" value="&lt;u&gt;:Offering&lt;/u&gt;" style="shape=umlLifeline;perimeter=lifelinePerimeter;whiteSpace=wrap;html=1;container=1;collapsible=0;recursiveResize=0;outlineConnect=0;rounded=0;shadow=0;comic=0;labelBackgroundColor=none;strokeWidth=1;fontFamily=Verdana;fontSize=12;align=center;" parent="1" vertex="1">
          <mxGeometry x="290" y="80" width="100" height="720" as="geometry" />
        </mxCell>
        <mxCell id="-ThjXkDwFaDYfXRfRSBC-93" value="" style="html=1;labelBackgroundColor=#ffffff;startArrow=none;startFill=0;startSize=6;endArrow=classic;endFill=1;endSize=6;jettySize=auto;orthogonalLoop=1;strokeWidth=1;dashed=1;fontSize=14;rounded=0;" parent="-ThjXkDwFaDYfXRfRSBC-4" edge="1">
          <mxGeometry width="60" height="60" relative="1" as="geometry">
            <mxPoint x="45.5" y="630" as="sourcePoint" />
            <mxPoint x="-225.5" y="630" as="targetPoint" />
            <Array as="points">
              <mxPoint x="-84.5" y="630" />
            </Array>
          </mxGeometry>
        </mxCell>
        <mxCell id="-ThjXkDwFaDYfXRfRSBC-5" value="&lt;u&gt;:Offering&lt;/u&gt;" style="shape=umlLifeline;perimeter=lifelinePerimeter;whiteSpace=wrap;html=1;container=1;collapsible=0;recursiveResize=0;outlineConnect=0;rounded=0;shadow=0;comic=0;labelBackgroundColor=none;strokeWidth=1;fontFamily=Verdana;fontSize=12;align=center;" parent="1" vertex="1">
          <mxGeometry x="540" y="80" width="100" height="720" as="geometry" />
        </mxCell>
        <mxCell id="-ThjXkDwFaDYfXRfRSBC-8" value="&lt;div&gt;&lt;font face=&quot;Helvetica&quot;&gt;&lt;u&gt;:Booking&lt;/u&gt;&lt;/font&gt;&lt;/div&gt;" style="shape=umlLifeline;perimeter=lifelinePerimeter;whiteSpace=wrap;html=1;container=1;collapsible=0;recursiveResize=0;outlineConnect=0;rounded=0;shadow=0;comic=0;labelBackgroundColor=none;strokeWidth=1;fontFamily=Verdana;fontSize=12;align=center;" parent="1" vertex="1">
          <mxGeometry x="800" y="80" width="100" height="720" as="geometry" />
        </mxCell>
        <mxCell id="-ThjXkDwFaDYfXRfRSBC-9" value="&lt;u&gt;:Client&lt;/u&gt;" style="shape=umlLifeline;perimeter=lifelinePerimeter;whiteSpace=wrap;html=1;container=1;collapsible=0;recursiveResize=0;outlineConnect=0;rounded=0;shadow=0;comic=0;labelBackgroundColor=none;strokeWidth=1;fontFamily=Verdana;fontSize=12;align=center;" parent="1" vertex="1">
          <mxGeometry x="20" y="80" width="100" height="720" as="geometry" />
        </mxCell>
        <mxCell id="-ThjXkDwFaDYfXRfRSBC-10" value="&lt;u&gt;booking:Booking&lt;/u&gt;" style="shape=umlLifeline;perimeter=lifelinePerimeter;whiteSpace=wrap;html=1;container=1;collapsible=0;recursiveResize=0;outlineConnect=0;rounded=0;shadow=0;comic=0;labelBackgroundColor=none;strokeWidth=1;fontFamily=Verdana;fontSize=12;align=center;" parent="1" vertex="1">
          <mxGeometry x="1080" y="80" width="100" height="720" as="geometry" />
        </mxCell>
        <mxCell id="-ThjXkDwFaDYfXRfRSBC-12" value="" style="group" parent="1" vertex="1" connectable="0">
          <mxGeometry x="1340" y="70" width="110" height="720" as="geometry" />
        </mxCell>
        <mxCell id="-ThjXkDwFaDYfXRfRSBC-13" value="Object" style="html=1;whiteSpace=wrap;" parent="-ThjXkDwFaDYfXRfRSBC-12" vertex="1">
          <mxGeometry x="10" width="100" height="48.8135593220339" as="geometry" />
        </mxCell>
        <mxCell id="-ThjXkDwFaDYfXRfRSBC-14" value="&lt;u&gt;:Booking&lt;/u&gt;" style="shape=umlLifeline;perimeter=lifelinePerimeter;whiteSpace=wrap;html=1;container=1;collapsible=0;recursiveResize=0;outlineConnect=0;rounded=0;shadow=0;comic=0;labelBackgroundColor=none;strokeWidth=1;fontFamily=Verdana;fontSize=12;align=center;" parent="-ThjXkDwFaDYfXRfRSBC-12" vertex="1">
          <mxGeometry y="12.203389830508476" width="100" height="707.7966101694916" as="geometry" />
        </mxCell>
        <mxCell id="-ThjXkDwFaDYfXRfRSBC-56" value="" style="endArrow=classic;html=1;rounded=0;" parent="1" edge="1">
          <mxGeometry width="50" height="50" relative="1" as="geometry">
            <mxPoint x="69.07142857142867" y="150" as="sourcePoint" />
            <mxPoint x="339.5000000000002" y="150" as="targetPoint" />
            <Array as="points">
              <mxPoint x="200" y="150" />
            </Array>
          </mxGeometry>
        </mxCell>
        <mxCell id="-ThjXkDwFaDYfXRfRSBC-57" value="SearchOffersAvailable()" style="text;html=1;align=center;verticalAlign=middle;resizable=0;points=[];autosize=1;strokeColor=none;fillColor=none;" parent="1" vertex="1">
          <mxGeometry x="145" y="128" width="150" height="30" as="geometry" />
        </mxCell>
        <mxCell id="-ThjXkDwFaDYfXRfRSBC-58" value="" style="endArrow=classic;html=1;rounded=0;" parent="1" source="-ThjXkDwFaDYfXRfRSBC-4" target="-ThjXkDwFaDYfXRfRSBC-5" edge="1">
          <mxGeometry width="50" height="50" relative="1" as="geometry">
            <mxPoint x="420" y="310" as="sourcePoint" />
            <mxPoint x="470" y="260" as="targetPoint" />
            <Array as="points">
              <mxPoint x="480" y="180" />
            </Array>
          </mxGeometry>
        </mxCell>
        <mxCell id="-ThjXkDwFaDYfXRfRSBC-59" value="getAllAvailable()" style="edgeLabel;html=1;align=center;verticalAlign=middle;resizable=0;points=[];" parent="-ThjXkDwFaDYfXRfRSBC-58" vertex="1" connectable="0">
          <mxGeometry x="-0.0548" y="4" relative="1" as="geometry">
            <mxPoint as="offset" />
          </mxGeometry>
        </mxCell>
        <mxCell id="-ThjXkDwFaDYfXRfRSBC-60" value="" style="html=1;labelBackgroundColor=#ffffff;startArrow=none;startFill=0;startSize=6;endArrow=classic;endFill=1;endSize=6;jettySize=auto;orthogonalLoop=1;strokeWidth=1;dashed=1;fontSize=14;rounded=0;" parent="1" source="-ThjXkDwFaDYfXRfRSBC-5" target="-ThjXkDwFaDYfXRfRSBC-4" edge="1">
          <mxGeometry width="60" height="60" relative="1" as="geometry">
            <mxPoint x="480" y="310" as="sourcePoint" />
            <mxPoint x="540" y="250" as="targetPoint" />
            <Array as="points">
              <mxPoint x="470" y="220" />
            </Array>
          </mxGeometry>
        </mxCell>
        <mxCell id="-ThjXkDwFaDYfXRfRSBC-61" value="None Available" style="text;html=1;align=center;verticalAlign=middle;resizable=0;points=[];autosize=1;strokeColor=none;fillColor=none;" parent="1" vertex="1">
          <mxGeometry x="415" y="200" width="100" height="30" as="geometry" />
        </mxCell>
        <mxCell id="-ThjXkDwFaDYfXRfRSBC-62" value="" style="html=1;labelBackgroundColor=#ffffff;startArrow=none;startFill=0;startSize=6;endArrow=classic;endFill=1;endSize=6;jettySize=auto;orthogonalLoop=1;strokeWidth=1;dashed=1;fontSize=14;rounded=0;" parent="1" source="-ThjXkDwFaDYfXRfRSBC-4" target="-ThjXkDwFaDYfXRfRSBC-9" edge="1">
          <mxGeometry width="60" height="60" relative="1" as="geometry">
            <mxPoint x="311" y="300" as="sourcePoint" />
            <mxPoint x="60" y="300" as="targetPoint" />
            <Array as="points">
              <mxPoint x="200" y="240" />
            </Array>
          </mxGeometry>
        </mxCell>
        <mxCell id="-ThjXkDwFaDYfXRfRSBC-63" value="None Available" style="text;html=1;align=center;verticalAlign=middle;resizable=0;points=[];autosize=1;strokeColor=none;fillColor=none;" parent="1" vertex="1">
          <mxGeometry x="160" y="220" width="100" height="30" as="geometry" />
        </mxCell>
        <mxCell id="-ThjXkDwFaDYfXRfRSBC-64" value="" style="html=1;labelBackgroundColor=#ffffff;startArrow=none;startFill=0;startSize=6;endArrow=classic;endFill=1;endSize=6;jettySize=auto;orthogonalLoop=1;strokeWidth=1;dashed=1;fontSize=14;rounded=0;" parent="1" source="-ThjXkDwFaDYfXRfRSBC-5" target="-ThjXkDwFaDYfXRfRSBC-4" edge="1">
          <mxGeometry width="60" height="60" relative="1" as="geometry">
            <mxPoint x="470" y="370" as="sourcePoint" />
            <mxPoint x="530" y="310" as="targetPoint" />
            <Array as="points">
              <mxPoint x="470" y="280" />
            </Array>
          </mxGeometry>
        </mxCell>
        <mxCell id="-ThjXkDwFaDYfXRfRSBC-65" value="" style="html=1;labelBackgroundColor=#ffffff;startArrow=none;startFill=0;startSize=6;endArrow=classic;endFill=1;endSize=6;jettySize=auto;orthogonalLoop=1;strokeWidth=1;dashed=1;fontSize=14;rounded=0;" parent="1" source="-ThjXkDwFaDYfXRfRSBC-4" target="-ThjXkDwFaDYfXRfRSBC-9" edge="1">
          <mxGeometry width="60" height="60" relative="1" as="geometry">
            <mxPoint x="335.5" y="320" as="sourcePoint" />
            <mxPoint x="84.5" y="320" as="targetPoint" />
            <Array as="points">
              <mxPoint x="216" y="310" />
            </Array>
          </mxGeometry>
        </mxCell>
        <mxCell id="-ThjXkDwFaDYfXRfRSBC-66" value="Offers" style="text;html=1;align=center;verticalAlign=middle;resizable=0;points=[];autosize=1;strokeColor=none;fillColor=none;" parent="1" vertex="1">
          <mxGeometry x="170" y="278" width="60" height="30" as="geometry" />
        </mxCell>
        <mxCell id="-ThjXkDwFaDYfXRfRSBC-67" value="Offers" style="text;html=1;align=center;verticalAlign=middle;resizable=0;points=[];autosize=1;strokeColor=none;fillColor=none;" parent="1" vertex="1">
          <mxGeometry x="430" y="260" width="60" height="30" as="geometry" />
        </mxCell>
        <mxCell id="-ThjXkDwFaDYfXRfRSBC-68" value="" style="endArrow=classic;html=1;rounded=0;" parent="1" source="-ThjXkDwFaDYfXRfRSBC-9" target="-ThjXkDwFaDYfXRfRSBC-4" edge="1">
          <mxGeometry width="50" height="50" relative="1" as="geometry">
            <mxPoint x="180" y="460" as="sourcePoint" />
            <mxPoint x="230" y="410" as="targetPoint" />
            <Array as="points">
              <mxPoint x="200" y="360" />
            </Array>
          </mxGeometry>
        </mxCell>
        <mxCell id="-ThjXkDwFaDYfXRfRSBC-69" value="BookOffering(Offer, Client)" style="text;html=1;align=center;verticalAlign=middle;resizable=0;points=[];autosize=1;strokeColor=none;fillColor=none;" parent="1" vertex="1">
          <mxGeometry x="120" y="340" width="160" height="30" as="geometry" />
        </mxCell>
        <mxCell id="-ThjXkDwFaDYfXRfRSBC-70" value="" style="endArrow=classic;html=1;rounded=0;" parent="1" source="-ThjXkDwFaDYfXRfRSBC-9" target="-ThjXkDwFaDYfXRfRSBC-4" edge="1">
          <mxGeometry width="50" height="50" relative="1" as="geometry">
            <mxPoint x="250" y="450" as="sourcePoint" />
            <mxPoint x="300" y="400" as="targetPoint" />
            <Array as="points">
              <mxPoint x="210" y="410" />
            </Array>
          </mxGeometry>
        </mxCell>
        <mxCell id="-ThjXkDwFaDYfXRfRSBC-71" value="Guardian()" style="text;html=1;align=center;verticalAlign=middle;resizable=0;points=[];autosize=1;strokeColor=none;fillColor=none;" parent="1" vertex="1">
          <mxGeometry x="160" y="380" width="80" height="30" as="geometry" />
        </mxCell>
        <mxCell id="-ThjXkDwFaDYfXRfRSBC-73" value="" style="endArrow=classic;html=1;rounded=0;" parent="1" source="-ThjXkDwFaDYfXRfRSBC-4" target="-ThjXkDwFaDYfXRfRSBC-8" edge="1">
          <mxGeometry width="50" height="50" relative="1" as="geometry">
            <mxPoint x="410" y="580" as="sourcePoint" />
            <mxPoint x="460" y="530" as="targetPoint" />
          </mxGeometry>
        </mxCell>
        <mxCell id="-ThjXkDwFaDYfXRfRSBC-74" value="BookOffering(Offer, Client)" style="text;html=1;align=center;verticalAlign=middle;resizable=0;points=[];autosize=1;strokeColor=none;fillColor=none;" parent="1" vertex="1">
          <mxGeometry x="380" y="415" width="160" height="30" as="geometry" />
        </mxCell>
        <mxCell id="-ThjXkDwFaDYfXRfRSBC-75" value="" style="endArrow=classic;html=1;rounded=0;" parent="1" source="-ThjXkDwFaDYfXRfRSBC-8" target="-ThjXkDwFaDYfXRfRSBC-10" edge="1">
          <mxGeometry width="50" height="50" relative="1" as="geometry">
            <mxPoint x="1030" y="590" as="sourcePoint" />
            <mxPoint x="1080" y="540" as="targetPoint" />
            <Array as="points">
              <mxPoint x="990" y="460" />
            </Array>
          </mxGeometry>
        </mxCell>
        <mxCell id="-ThjXkDwFaDYfXRfRSBC-76" value="CreateBooking(Offer, Client)" style="text;html=1;align=center;verticalAlign=middle;resizable=0;points=[];autosize=1;strokeColor=none;fillColor=none;" parent="1" vertex="1">
          <mxGeometry x="900" y="440" width="170" height="30" as="geometry" />
        </mxCell>
        <mxCell id="-ThjXkDwFaDYfXRfRSBC-77" value="" style="endArrow=classic;html=1;rounded=0;" parent="1" source="-ThjXkDwFaDYfXRfRSBC-8" target="-ThjXkDwFaDYfXRfRSBC-14" edge="1">
          <mxGeometry width="50" height="50" relative="1" as="geometry">
            <mxPoint x="980" y="620" as="sourcePoint" />
            <mxPoint x="1030" y="570" as="targetPoint" />
            <Array as="points">
              <mxPoint x="1120" y="490" />
            </Array>
          </mxGeometry>
        </mxCell>
        <mxCell id="-ThjXkDwFaDYfXRfRSBC-78" value="Save(booking)" style="text;html=1;align=center;verticalAlign=middle;resizable=0;points=[];autosize=1;strokeColor=none;fillColor=none;" parent="1" vertex="1">
          <mxGeometry x="1140" y="460" width="100" height="30" as="geometry" />
        </mxCell>
        <mxCell id="-ThjXkDwFaDYfXRfRSBC-79" value="" style="html=1;labelBackgroundColor=#ffffff;startArrow=none;startFill=0;startSize=6;endArrow=classic;endFill=1;endSize=6;jettySize=auto;orthogonalLoop=1;strokeWidth=1;dashed=1;fontSize=14;rounded=0;" parent="1" source="-ThjXkDwFaDYfXRfRSBC-8" target="-ThjXkDwFaDYfXRfRSBC-4" edge="1">
          <mxGeometry width="60" height="60" relative="1" as="geometry">
            <mxPoint x="710" y="630" as="sourcePoint" />
            <mxPoint x="770" y="570" as="targetPoint" />
            <Array as="points">
              <mxPoint x="600" y="530" />
            </Array>
          </mxGeometry>
        </mxCell>
        <mxCell id="-ThjXkDwFaDYfXRfRSBC-80" value="Booking Confimarion" style="text;html=1;align=center;verticalAlign=middle;resizable=0;points=[];autosize=1;strokeColor=none;fillColor=none;" parent="1" vertex="1">
          <mxGeometry x="495" y="508" width="130" height="30" as="geometry" />
        </mxCell>
        <mxCell id="-ThjXkDwFaDYfXRfRSBC-82" value="" style="html=1;labelBackgroundColor=#ffffff;startArrow=none;startFill=0;startSize=6;endArrow=classic;endFill=1;endSize=6;jettySize=auto;orthogonalLoop=1;strokeWidth=1;dashed=1;fontSize=14;rounded=0;" parent="1" source="-ThjXkDwFaDYfXRfRSBC-4" target="-ThjXkDwFaDYfXRfRSBC-9" edge="1">
          <mxGeometry width="60" height="60" relative="1" as="geometry">
            <mxPoint x="190" y="640" as="sourcePoint" />
            <mxPoint x="250" y="580" as="targetPoint" />
            <Array as="points">
              <mxPoint x="210" y="560" />
            </Array>
          </mxGeometry>
        </mxCell>
        <mxCell id="-ThjXkDwFaDYfXRfRSBC-83" value="Booking Confimarion" style="text;html=1;align=center;verticalAlign=middle;resizable=0;points=[];autosize=1;strokeColor=none;fillColor=none;" parent="1" vertex="1">
          <mxGeometry x="135" y="535" width="130" height="30" as="geometry" />
        </mxCell>
        <mxCell id="-ThjXkDwFaDYfXRfRSBC-84" value="" style="endArrow=classic;html=1;rounded=0;" parent="1" source="-ThjXkDwFaDYfXRfRSBC-4" target="-ThjXkDwFaDYfXRfRSBC-8" edge="1">
          <mxGeometry width="50" height="50" relative="1" as="geometry">
            <mxPoint x="510" y="680" as="sourcePoint" />
            <mxPoint x="560" y="630" as="targetPoint" />
            <Array as="points">
              <mxPoint x="580" y="600" />
            </Array>
          </mxGeometry>
        </mxCell>
        <mxCell id="-ThjXkDwFaDYfXRfRSBC-85" value="BookOffering(Offer, Client)" style="text;html=1;align=center;verticalAlign=middle;resizable=0;points=[];autosize=1;strokeColor=none;fillColor=none;" parent="1" vertex="1">
          <mxGeometry x="385" y="580" width="160" height="30" as="geometry" />
        </mxCell>
        <mxCell id="-ThjXkDwFaDYfXRfRSBC-86" value="" style="endArrow=classic;html=1;rounded=0;" parent="1" edge="1">
          <mxGeometry width="50" height="50" relative="1" as="geometry">
            <mxPoint x="850" y="630" as="sourcePoint" />
            <mxPoint x="1131" y="630" as="targetPoint" />
            <Array as="points">
              <mxPoint x="991" y="630" />
            </Array>
          </mxGeometry>
        </mxCell>
        <mxCell id="-ThjXkDwFaDYfXRfRSBC-87" value="CreateBooking(Offer, Client)" style="text;html=1;align=center;verticalAlign=middle;resizable=0;points=[];autosize=1;strokeColor=none;fillColor=none;" parent="1" vertex="1">
          <mxGeometry x="910" y="600" width="170" height="30" as="geometry" />
        </mxCell>
        <mxCell id="-ThjXkDwFaDYfXRfRSBC-88" value="" style="endArrow=classic;html=1;rounded=0;" parent="1" edge="1">
          <mxGeometry width="50" height="50" relative="1" as="geometry">
            <mxPoint x="850" y="660" as="sourcePoint" />
            <mxPoint x="1391" y="660" as="targetPoint" />
            <Array as="points">
              <mxPoint x="1121" y="660" />
            </Array>
          </mxGeometry>
        </mxCell>
        <mxCell id="-ThjXkDwFaDYfXRfRSBC-89" value="Save(booking)" style="text;html=1;align=center;verticalAlign=middle;resizable=0;points=[];autosize=1;strokeColor=none;fillColor=none;" parent="1" vertex="1">
          <mxGeometry x="1150" y="630" width="100" height="30" as="geometry" />
        </mxCell>
        <mxCell id="-ThjXkDwFaDYfXRfRSBC-90" value="" style="html=1;labelBackgroundColor=#ffffff;startArrow=none;startFill=0;startSize=6;endArrow=classic;endFill=1;endSize=6;jettySize=auto;orthogonalLoop=1;strokeWidth=1;dashed=1;fontSize=14;rounded=0;" parent="1" edge="1">
          <mxGeometry width="60" height="60" relative="1" as="geometry">
            <mxPoint x="850" y="690" as="sourcePoint" />
            <mxPoint x="339" y="690" as="targetPoint" />
            <Array as="points">
              <mxPoint x="600" y="690" />
            </Array>
          </mxGeometry>
        </mxCell>
        <mxCell id="-ThjXkDwFaDYfXRfRSBC-91" value="Booking Confimarion" style="text;html=1;align=center;verticalAlign=middle;resizable=0;points=[];autosize=1;strokeColor=none;fillColor=none;" parent="1" vertex="1">
          <mxGeometry x="600" y="660" width="130" height="30" as="geometry" />
        </mxCell>
        <mxCell id="-ThjXkDwFaDYfXRfRSBC-94" value="Booking Confimarion" style="text;html=1;align=center;verticalAlign=middle;resizable=0;points=[];autosize=1;strokeColor=none;fillColor=none;" parent="1" vertex="1">
          <mxGeometry x="145" y="680" width="130" height="30" as="geometry" />
        </mxCell>
        <mxCell id="SkyTat1IYlTrz1_6FR6T-2" value="Alt" style="shape=umlFrame;whiteSpace=wrap;html=1;pointerEvents=0;" vertex="1" parent="1">
          <mxGeometry x="10" y="200" width="1450" height="660" as="geometry" />
        </mxCell>
        <mxCell id="SkyTat1IYlTrz1_6FR6T-3" value="" style="endArrow=none;html=1;rounded=0;exitX=0;exitY=0.089;exitDx=0;exitDy=0;exitPerimeter=0;" edge="1" parent="1" source="SkyTat1IYlTrz1_6FR6T-2">
          <mxGeometry width="50" height="50" relative="1" as="geometry">
            <mxPoint x="20" y="260" as="sourcePoint" />
            <mxPoint x="1430" y="254" as="targetPoint" />
            <Array as="points" />
          </mxGeometry>
        </mxCell>
        <mxCell id="SkyTat1IYlTrz1_6FR6T-4" value="Alt" style="shape=umlFrame;whiteSpace=wrap;html=1;pointerEvents=0;" vertex="1" parent="1">
          <mxGeometry x="20" y="375" width="1420" height="445" as="geometry" />
        </mxCell>
        <mxCell id="SkyTat1IYlTrz1_6FR6T-6" value="" style="endArrow=none;html=1;rounded=0;exitX=-0.001;exitY=0.45;exitDx=0;exitDy=0;exitPerimeter=0;entryX=1.001;entryY=0.453;entryDx=0;entryDy=0;entryPerimeter=0;" edge="1" parent="1" source="SkyTat1IYlTrz1_6FR6T-4" target="SkyTat1IYlTrz1_6FR6T-4">
          <mxGeometry width="50" height="50" relative="1" as="geometry">
            <mxPoint x="190" y="620" as="sourcePoint" />
            <mxPoint x="240" y="570" as="targetPoint" />
            <Array as="points">
              <mxPoint x="730" y="570" />
            </Array>
          </mxGeometry>
        </mxCell>
        <mxCell id="SkyTat1IYlTrz1_6FR6T-7" value="under 18" style="text;html=1;align=center;verticalAlign=middle;whiteSpace=wrap;rounded=0;" vertex="1" parent="1">
          <mxGeometry x="20" y="460" width="40" height="20" as="geometry" />
        </mxCell>
        <mxCell id="SkyTat1IYlTrz1_6FR6T-8" style="edgeStyle=orthogonalEdgeStyle;rounded=0;orthogonalLoop=1;jettySize=auto;html=1;exitX=0.5;exitY=0;exitDx=0;exitDy=0;entryX=0.75;entryY=0;entryDx=0;entryDy=0;" edge="1" parent="1" source="SkyTat1IYlTrz1_6FR6T-7" target="SkyTat1IYlTrz1_6FR6T-7">
          <mxGeometry relative="1" as="geometry" />
        </mxCell>
        <mxCell id="SkyTat1IYlTrz1_6FR6T-10" value="Over 18" style="text;html=1;align=center;verticalAlign=middle;whiteSpace=wrap;rounded=0;" vertex="1" parent="1">
          <mxGeometry x="20" y="640" width="40" height="20" as="geometry" />
        </mxCell>
        <mxCell id="SkyTat1IYlTrz1_6FR6T-12" value="&lt;u&gt;:Booking&lt;/u&gt;" style="shape=umlLifeline;perimeter=lifelinePerimeter;whiteSpace=wrap;html=1;container=1;collapsible=0;recursiveResize=0;outlineConnect=0;rounded=0;shadow=0;comic=0;labelBackgroundColor=none;strokeWidth=1;fontFamily=Verdana;fontSize=12;align=center;" vertex="1" parent="1">
          <mxGeometry x="395" y="990" width="100" height="600" as="geometry" />
        </mxCell>
        <mxCell id="SkyTat1IYlTrz1_6FR6T-15" value="&lt;font face=&quot;Helvetica&quot;&gt;&lt;u&gt;booking:Booking&lt;/u&gt;&lt;/font&gt;" style="shape=umlLifeline;perimeter=lifelinePerimeter;whiteSpace=wrap;html=1;container=1;collapsible=0;recursiveResize=0;outlineConnect=0;rounded=0;shadow=0;comic=0;labelBackgroundColor=none;strokeWidth=1;fontFamily=Verdana;fontSize=12;align=center;" vertex="1" parent="1">
          <mxGeometry x="800" y="990" width="100" height="600" as="geometry" />
        </mxCell>
        <mxCell id="SkyTat1IYlTrz1_6FR6T-16" value="&lt;u&gt;:Client&lt;/u&gt;" style="shape=umlLifeline;perimeter=lifelinePerimeter;whiteSpace=wrap;html=1;container=1;collapsible=0;recursiveResize=0;outlineConnect=0;rounded=0;shadow=0;comic=0;labelBackgroundColor=none;strokeWidth=1;fontFamily=Verdana;fontSize=12;align=center;" vertex="1" parent="1">
          <mxGeometry x="20" y="990" width="100" height="600" as="geometry" />
        </mxCell>
        <mxCell id="SkyTat1IYlTrz1_6FR6T-18" value="" style="group" vertex="1" connectable="0" parent="1">
          <mxGeometry x="1300" y="980" width="110" height="610" as="geometry" />
        </mxCell>
        <mxCell id="SkyTat1IYlTrz1_6FR6T-19" value="Object" style="html=1;whiteSpace=wrap;" vertex="1" parent="SkyTat1IYlTrz1_6FR6T-18">
          <mxGeometry x="10" width="100" height="41.355932203389834" as="geometry" />
        </mxCell>
        <mxCell id="SkyTat1IYlTrz1_6FR6T-20" value="&lt;u&gt;:Booking&lt;/u&gt;" style="shape=umlLifeline;perimeter=lifelinePerimeter;whiteSpace=wrap;html=1;container=1;collapsible=0;recursiveResize=0;outlineConnect=0;rounded=0;shadow=0;comic=0;labelBackgroundColor=none;strokeWidth=1;fontFamily=Verdana;fontSize=12;align=center;" vertex="1" parent="SkyTat1IYlTrz1_6FR6T-18">
          <mxGeometry y="10.338983050847459" width="100" height="599.6610169491527" as="geometry" />
        </mxCell>
        <mxCell id="SkyTat1IYlTrz1_6FR6T-63" value="" style="endArrow=classic;html=1;rounded=0;" edge="1" parent="1" source="SkyTat1IYlTrz1_6FR6T-16" target="SkyTat1IYlTrz1_6FR6T-12">
          <mxGeometry width="50" height="50" relative="1" as="geometry">
            <mxPoint x="220" y="1140" as="sourcePoint" />
            <mxPoint x="270" y="1090" as="targetPoint" />
            <Array as="points">
              <mxPoint x="260" y="1080" />
            </Array>
          </mxGeometry>
        </mxCell>
        <mxCell id="SkyTat1IYlTrz1_6FR6T-64" value="" style="endArrow=classic;html=1;rounded=0;" edge="1" parent="1" source="SkyTat1IYlTrz1_6FR6T-12" target="SkyTat1IYlTrz1_6FR6T-20">
          <mxGeometry width="50" height="50" relative="1" as="geometry">
            <mxPoint x="590" y="1190" as="sourcePoint" />
            <mxPoint x="640" y="1140" as="targetPoint" />
            <Array as="points">
              <mxPoint x="890" y="1120" />
            </Array>
          </mxGeometry>
        </mxCell>
        <mxCell id="SkyTat1IYlTrz1_6FR6T-66" value="findBooking(Client)" style="text;html=1;align=center;verticalAlign=middle;resizable=0;points=[];autosize=1;strokeColor=none;fillColor=none;" vertex="1" parent="1">
          <mxGeometry x="890" y="1088" width="120" height="30" as="geometry" />
        </mxCell>
        <mxCell id="SkyTat1IYlTrz1_6FR6T-67" value="" style="html=1;labelBackgroundColor=#ffffff;startArrow=none;startFill=0;startSize=6;endArrow=classic;endFill=1;endSize=6;jettySize=auto;orthogonalLoop=1;strokeWidth=1;dashed=1;fontSize=14;rounded=0;" edge="1" parent="1" source="SkyTat1IYlTrz1_6FR6T-20" target="SkyTat1IYlTrz1_6FR6T-12">
          <mxGeometry width="60" height="60" relative="1" as="geometry">
            <mxPoint x="1160" y="1320" as="sourcePoint" />
            <mxPoint x="1220" y="1260" as="targetPoint" />
            <Array as="points">
              <mxPoint x="910" y="1170" />
            </Array>
          </mxGeometry>
        </mxCell>
        <mxCell id="SkyTat1IYlTrz1_6FR6T-68" value="Bookings shown" style="text;html=1;align=center;verticalAlign=middle;resizable=0;points=[];autosize=1;strokeColor=none;fillColor=none;" vertex="1" parent="1">
          <mxGeometry x="895" y="1138" width="110" height="30" as="geometry" />
        </mxCell>
        <mxCell id="SkyTat1IYlTrz1_6FR6T-69" value="" style="html=1;labelBackgroundColor=#ffffff;startArrow=none;startFill=0;startSize=6;endArrow=classic;endFill=1;endSize=6;jettySize=auto;orthogonalLoop=1;strokeWidth=1;dashed=1;fontSize=14;rounded=0;" edge="1" parent="1" source="SkyTat1IYlTrz1_6FR6T-12" target="SkyTat1IYlTrz1_6FR6T-16">
          <mxGeometry width="60" height="60" relative="1" as="geometry">
            <mxPoint x="320" y="1290" as="sourcePoint" />
            <mxPoint x="380" y="1230" as="targetPoint" />
            <Array as="points">
              <mxPoint x="280" y="1200" />
            </Array>
          </mxGeometry>
        </mxCell>
        <mxCell id="SkyTat1IYlTrz1_6FR6T-70" value="Bookings shown" style="text;html=1;align=center;verticalAlign=middle;resizable=0;points=[];autosize=1;strokeColor=none;fillColor=none;" vertex="1" parent="1">
          <mxGeometry x="185" y="1168" width="110" height="30" as="geometry" />
        </mxCell>
        <mxCell id="SkyTat1IYlTrz1_6FR6T-71" value="" style="endArrow=classic;html=1;rounded=0;" edge="1" parent="1" source="SkyTat1IYlTrz1_6FR6T-16" target="SkyTat1IYlTrz1_6FR6T-12">
          <mxGeometry width="50" height="50" relative="1" as="geometry">
            <mxPoint x="190" y="1300" as="sourcePoint" />
            <mxPoint x="240" y="1250" as="targetPoint" />
            <Array as="points">
              <mxPoint x="260" y="1250" />
            </Array>
          </mxGeometry>
        </mxCell>
        <mxCell id="SkyTat1IYlTrz1_6FR6T-72" value="CancelTheBooking(booking)" style="text;html=1;align=center;verticalAlign=middle;resizable=0;points=[];autosize=1;strokeColor=none;fillColor=none;" vertex="1" parent="1">
          <mxGeometry x="155" y="1218" width="170" height="30" as="geometry" />
        </mxCell>
        <mxCell id="SkyTat1IYlTrz1_6FR6T-73" value="" style="endArrow=classic;html=1;rounded=0;" edge="1" parent="1" source="SkyTat1IYlTrz1_6FR6T-12" target="SkyTat1IYlTrz1_6FR6T-15">
          <mxGeometry width="50" height="50" relative="1" as="geometry">
            <mxPoint x="660" y="1360" as="sourcePoint" />
            <mxPoint x="710" y="1310" as="targetPoint" />
            <Array as="points">
              <mxPoint x="650" y="1280" />
            </Array>
          </mxGeometry>
        </mxCell>
        <mxCell id="SkyTat1IYlTrz1_6FR6T-74" value="CancelTheBooking(booking)" style="text;html=1;align=center;verticalAlign=middle;resizable=0;points=[];autosize=1;strokeColor=none;fillColor=none;" vertex="1" parent="1">
          <mxGeometry x="560" y="1248" width="170" height="30" as="geometry" />
        </mxCell>
        <mxCell id="SkyTat1IYlTrz1_6FR6T-75" value="" style="html=1;labelBackgroundColor=#ffffff;startArrow=none;startFill=0;startSize=6;endArrow=classic;endFill=1;endSize=6;jettySize=auto;orthogonalLoop=1;strokeWidth=1;dashed=1;fontSize=14;rounded=0;" edge="1" parent="1" source="SkyTat1IYlTrz1_6FR6T-12" target="SkyTat1IYlTrz1_6FR6T-16">
          <mxGeometry width="60" height="60" relative="1" as="geometry">
            <mxPoint x="220" y="1400" as="sourcePoint" />
            <mxPoint x="280" y="1340" as="targetPoint" />
            <Array as="points">
              <mxPoint x="260" y="1320" />
            </Array>
          </mxGeometry>
        </mxCell>
        <mxCell id="SkyTat1IYlTrz1_6FR6T-76" value="Booking Confirmation" style="text;html=1;align=center;verticalAlign=middle;resizable=0;points=[];autosize=1;strokeColor=none;fillColor=none;" vertex="1" parent="1">
          <mxGeometry x="180" y="1288" width="140" height="30" as="geometry" />
        </mxCell>
      </root>
    </mxGraphModel>
  </diagram>
</mxfile>
